<svg width="313" height="202" viewBox="0 0 313 202" fill="none" xmlns="http://www.w3.org/2000/svg">
<path d="M307.707 0V181.5V185.5V189H310.207L306.707 192L310.207 199L302.207 195L296.707 199L293.207 196.5H23.707L17.207 200.5L11.207 194L2.70703 200.5L0.707031 198.5" stroke="#63ABC6" stroke-width="2"/>
<path d="M307.707 174H276.207M264.207 174H276.207M276.207 174V189.5L66.207 191L63.207 188L58.207 189.5H52.207V191L24.207 189.5L15.707 180.5L10.207 188L3.20703 182L1.70703 183.5" stroke="#63ABC6" stroke-width="2"/>
<path d="M287.207 195.5V181.5M287.207 181.5L295.207 174.5M287.207 181.5L279.707 174.5H287.207H291.207L287.207 159L298.207 165V146.5L302.207 143.5L301.239 98.5M302.207 62V76M302.207 76V95L301.207 97L301.239 98.5M302.207 76L296.707 79V93M296.707 93L301.239 98.5M296.707 93L290.707 99.5L292.207 102L293.707 104V107L292.207 110L287.207 109L290.707 117.5L282.707 123.5L288.207 131M288.207 131L300.207 117.5M288.207 131L295.707 138.5L286.207 148.5V158.5M288.207 131L287.207 133.5L287.147 135M286.207 158.5L287.147 135M286.207 158.5L273.207 152.5M287.147 135L282.707 135.5L273.707 144L273.207 152.5M273.207 152.5L277.207 174H264.707M273.207 152.5L263.207 154.5L256.707 159.5M264.707 174L262.776 170.5M264.707 174L263.457 181.25M256.707 159.5L262.776 170.5M256.707 159.5L252.707 162L246.207 179M262.776 170.5L266.912 163.5M262.776 170.5L259.707 172L246.207 179M267.207 163L271.207 163.5M267.207 163V160L266.912 163.5M267.207 163L266.912 163.5M246.207 179L245.493 180M238.707 189.5L242.457 184.25M242.457 184.25L253.707 183.5M242.457 184.25L245.493 180M253.707 183.5L254.207 189.5M253.707 183.5L262.207 181.5L263.457 181.25M264.707 181L259.707 187V189.5M264.707 181L275.707 179L263.457 181.25M264.707 181L263.457 181.25M245.493 180L240.707 177M240.707 177L233.707 176.5M240.707 177V171.5M240.707 177L233.207 176.5L230.207 176L231.207 180L227.207 181L223.207 176.5M223.207 176.5L221.207 174M223.207 176.5L215.207 184.5M215.207 184.5L210.207 181L201.207 185.5L210.207 180.5L215.207 184.5ZM215.207 184.5L215.707 188" stroke="#63ABC6" stroke-width="2"/>
<path d="M306.707 192.5L310.207 199L302.207 195L296.207 199L291.707 196L294.207 193L295.207 189L292.707 184L299.707 187V183L304.207 184L307.707 180V189H309.707L306.707 192.5Z" fill="#63ABC6" stroke="#63ABC6" stroke-width="2"/>
</svg>
