<svg width="313" height="202" viewBox="0 0 313 202" fill="none" xmlns="http://www.w3.org/2000/svg">
<path d="M5.20312 0V181.5V185.5V189H2.70312L6.20312 192L2.70312 199L10.7031 195L16.2031 199L19.7031 196.5H289.203L295.703 200.5L301.703 194L310.203 200.5L312.203 198.5" stroke="#63ABC6" stroke-width="2"/>
<path d="M5.20312 174H36.7031M48.7031 174H36.7031M36.7031 174V189.5L246.703 191L249.703 188L254.703 189.5H260.703V191L288.703 189.5L297.203 180.5L302.703 188L309.703 182L311.203 183.5" stroke="#63ABC6" stroke-width="2"/>
<path d="M25.7031 195.5V181.5M25.7031 181.5L17.7031 174.5M25.7031 181.5L33.2031 174.5H25.7031H21.7031L25.7031 159L14.7031 165V146.5L10.7031 143.5L11.6709 98.5M10.7031 62V76M10.7031 76V95L11.7031 97L11.6709 98.5M10.7031 76L16.2031 79V93M16.2031 93L11.6709 98.5M16.2031 93L22.2031 99.5L20.7031 102L19.2031 104V107L20.7031 110L25.7031 109L22.2031 117.5L30.2031 123.5L24.7031 131M24.7031 131L12.7031 117.5M24.7031 131L17.2031 138.5L26.7031 148.5V158.5M24.7031 131L25.7031 133.5L25.7631 135M26.7031 158.5L25.7631 135M26.7031 158.5L39.7031 152.5M25.7631 135L30.2031 135.5L39.2031 144L39.7031 152.5M39.7031 152.5L35.7031 174H48.2031M39.7031 152.5L49.7031 154.5L56.2031 159.5M48.2031 174L50.1342 170.5M48.2031 174L49.4531 181.25M56.2031 159.5L50.1342 170.5M56.2031 159.5L60.2031 162L66.7031 179M50.1342 170.5L45.9985 163.5M50.1342 170.5L53.2031 172L66.7031 179M45.7031 163L41.7031 163.5M45.7031 163V160L45.9985 163.5M45.7031 163L45.9985 163.5M66.7031 179L67.4174 180M74.2031 189.5L70.4531 184.25M70.4531 184.25L59.2031 183.5M70.4531 184.25L67.4174 180M59.2031 183.5L58.7031 189.5M59.2031 183.5L50.7031 181.5L49.4531 181.25M48.2031 181L53.2031 187V189.5M48.2031 181L37.2031 179L49.4531 181.25M48.2031 181L49.4531 181.25M67.4174 180L72.2031 177M72.2031 177L79.2031 176.5M72.2031 177V171.5M72.2031 177L79.7031 176.5L82.7031 176L81.7031 180L85.7031 181L89.7031 176.5M89.7031 176.5L91.7031 174M89.7031 176.5L97.7031 184.5M97.7031 184.5L102.703 181L111.703 185.5L102.703 180.5L97.7031 184.5ZM97.7031 184.5L97.2031 188" stroke="#63ABC6" stroke-width="2"/>
<path d="M6.20312 192.5L2.70312 199L10.7031 195L16.7031 199L21.2031 196L18.7031 193L17.7031 189L20.2031 184L13.2031 187V183L8.70312 184L5.20312 180V189H3.20312L6.20312 192.5Z" fill="#63ABC6" stroke="#63ABC6" stroke-width="2"/>
</svg>
