<svg width="298" height="258" viewBox="0 0 298 258" fill="none" xmlns="http://www.w3.org/2000/svg">
<path d="M294.289 248.76L284.781 253.366H265.133M294.289 248.76L290.486 246.073V243.387V241.084M294.289 248.76V239.165M290.486 241.084L294.289 239.165M290.486 241.084L281.612 246.073L276.542 245.306M294.289 239.165H296.824V220.742M275.274 1.97125H287.951V3.12267L289.218 4.65791L290.486 6.19314L293.021 7.34456L296.824 8.49599V22.6969M275.274 1.97125V4.65791M275.274 1.97125H261.33M275.274 4.65791H267.034L261.33 1.97125M275.274 4.65791V7.34456H277.809V12.3341H282.246L287.951 14.2531V19.2426L296.824 22.6969M261.33 1.97125L33.1497 0.916509M261.33 1.97125L50.897 1.20363L49.6294 2.73886L44.5587 5.04171L39.488 5.42552H35.685L33.1497 3.50648M1.45805 11.5665H4.62722L7.16255 11.1826L10.3317 9.2636L12.867 6.96075L14.7685 5.04171V3.50648V2.35506V1.20363L33.1497 0.916509M33.1497 0.916509L12.2332 0.819824L0.824219 8.11218L1.00113 21.5455M33.1497 0.916509V3.50648M33.1497 3.50648L29.9805 5.42552L25.5437 7.34456L22.3745 8.11218V10.7988L19.2054 12.7179H12.867L10.9655 17.7074M10.9655 17.7074L1.00113 21.5455M10.9655 17.7074V24.6159L4.62722 28.3212M1.00113 21.5455L1.11738 30.373M1.11738 30.373L4.62722 28.3212M1.11738 30.373L1.23869 39.5844M4.62722 28.3212V36.514L1.23869 39.5844M1.23869 39.5844L3.6699 224.196M296.824 22.6969V220.742M296.824 220.742L288.584 226.115V234.175L277.809 237.629L277.175 241.468M276.542 245.306L265.133 253.366M276.542 245.306L277.175 241.468M265.133 253.366H245.484M277.175 241.468L245.484 253.366M245.484 253.366H170.691L159.282 249.911L149.775 256.82L137.732 248.76L131.394 253.366H49.6294M3.6699 224.196L7.16255 226.115V233.024L18.5715 237.246V241.851L19.2054 242.235V245.306M3.6699 224.196L3.83164 236.478M19.2054 245.306L31.2482 253.366M19.2054 245.306L10.3317 244.154M31.2482 253.366H12.2332L3.99338 248.76L3.98327 247.992M31.2482 253.366V246.841L49.6294 253.366M31.2482 253.366H49.6294M10.3317 244.154L3.83164 236.478M10.3317 244.154L3.98327 247.992M3.83164 236.478L3.98327 247.992" stroke="#63ABC6" stroke-width="1.63721"/>
</svg>
