<svg width="744" height="384" viewBox="0 0 744 384" fill="none" xmlns="http://www.w3.org/2000/svg">
<path d="M727.145 7.10774L703.614 0.818857H654.984M727.145 7.10774L717.733 10.7763V14.4448V17.5893M727.145 7.10774V20.2097M717.733 17.5893L727.145 20.2097M717.733 17.5893L695.771 10.7763L683.221 11.8244M727.145 20.2097H733.42V45.3654M689.496 380.723H720.87V379.15L724.008 377.054L727.145 374.958L733.42 373.385L742.832 371.813V352.422M689.496 380.723V377.054M689.496 380.723H654.984M689.496 377.054H669.103L654.984 380.723M689.496 377.054V373.385H695.771V366.572H706.752L720.87 363.952V357.139L742.832 352.422M654.984 380.723L260.905 382.228M2.40074 368.145H10.2443L16.5191 368.669L24.3627 371.289L30.6375 374.434L35.3437 377.054V379.15V380.723V382.295L80.8363 382.687M80.8363 382.687L29.0688 382.819L0.832031 372.861L1.26987 354.519M80.8363 382.687V379.15M80.8363 382.687L260.905 382.228M80.8363 379.15L72.9927 376.53L62.0117 373.91L54.1682 372.861V369.193L46.3246 366.572H30.6375L25.9314 359.759M80.8363 379.15L87.1111 376.53H96.5234L109.073 377.054L121.623 380.198L124.76 382.295L260.905 382.228M25.9314 359.759L1.26987 354.519M25.9314 359.759V350.326L10.2443 345.267M1.26987 354.519L1.55759 342.465M1.55759 342.465L10.2443 345.267M1.55759 342.465L1.85782 329.887M10.2443 345.267V334.08L1.85782 329.887M1.85782 329.887L0.832031 71.5692M742.832 352.422L733.42 45.3654M733.42 45.3654L713.027 38.0283V27.0227L686.358 22.306L684.79 17.0652M683.221 11.8244L654.984 0.818857M683.221 11.8244L684.79 17.0652M654.984 0.818857H606.354M684.79 17.0652L606.354 0.818857M606.354 0.818857L391.832 0.818828L371.832 27.0226L356.332 27.0226L338.832 38.0283L323.145 31.7394L114.58 31.7393M0.832031 71.5692L9.4762 68.9488V59.5155L37.713 53.7506V47.4617L39.2817 46.9376V42.745M0.832031 71.5692L1.23234 54.7987M39.2817 42.745L69.0872 31.7393M39.2817 42.745L17.3198 44.3172M69.0872 31.7393H22.0259L1.63265 38.0283L1.60763 39.0764M69.0872 31.7393V40.6487L114.58 31.7393M69.0872 31.7393H114.58M17.3198 44.3172L1.23234 54.7987M17.3198 44.3172L1.60763 39.0764M1.23234 54.7987L1.60763 39.0764" stroke="#63ABC6" stroke-width="1.63721"/>
</svg>
