<svg width="654" height="311" viewBox="0 0 654 311" fill="none" xmlns="http://www.w3.org/2000/svg">
<path d="M639.05 299.814L618.373 304.819H575.642M639.05 299.814L630.779 296.895V293.975V291.473M639.05 299.814V289.387M630.779 291.473L639.05 289.387M630.779 291.473L611.481 296.895L600.453 296.06M639.05 289.387H644.563V269.368M605.967 2.48712H633.536V3.73832L636.293 5.40659L639.05 7.07485L644.563 8.32605L652.834 9.57726V25.0087M605.967 2.48712V5.40659M605.967 2.48712H575.642M605.967 5.40659H588.048L575.642 2.48712M605.967 5.40659V8.32605H611.481V13.7479H621.13L633.536 15.8333V21.2551L652.834 25.0087M575.642 2.48712L229.362 1.28936M2.21242 12.4967H9.1046L14.6183 12.0797L21.5105 9.99432L27.0243 7.49192L31.1596 5.40659V3.73832V2.48712V1.23591L71.1342 0.92391M71.1342 0.92391L25.6458 0.818848L0.833984 8.74312L1.21872 23.3405M71.1342 0.92391V3.73832M71.1342 0.92391L229.362 1.28936M71.1342 3.73832L64.242 5.82365L54.593 7.90899L47.7008 8.74312V11.6626L40.8086 13.7479H27.0243L22.889 19.1698M71.1342 3.73832L76.6479 5.82365H84.9185L95.946 5.40659L106.974 2.90418L109.73 1.23591L229.362 1.28936M22.889 19.1698L1.21872 23.3405M22.889 19.1698V26.677L9.1046 30.7034M1.21872 23.3405L1.47154 32.933M1.47154 32.933L9.1046 30.7034M1.47154 32.933L1.73535 42.9426M9.1046 30.7034V39.6061L1.73535 42.9426M1.73535 42.9426L0.833984 243.552M652.834 25.0087L644.563 269.368M644.563 269.368L626.644 275.207V283.966L603.21 287.719L601.832 291.89M600.453 296.06L575.642 304.819M600.453 296.06L601.832 291.89M575.642 304.819H532.91M601.832 291.89L532.91 304.819M532.91 304.819H369.738L331.958 279.003H324.766L298.576 270.244L284.792 275.249H100.785M0.833984 243.552L8.42967 245.637V253.144L33.2415 257.732V262.737L34.6199 263.154V266.491M0.833984 243.552L1.18574 256.898M34.6199 266.491L60.8102 275.249M34.6199 266.491L15.3218 265.239M60.8102 275.249H19.4572L1.53749 270.244L1.51551 269.41M60.8102 275.249V268.159L100.785 275.249M60.8102 275.249H100.785M15.3218 265.239L1.18574 256.898M15.3218 265.239L1.51551 269.41M1.18574 256.898L1.51551 269.41" stroke="#63ABC6" stroke-width="1.63721"/>
<path d="M16.334 283.819H3.83398L28.834 308.819H41.6389L16.334 283.819Z" fill="#447A97" stroke="#447A97" stroke-width="2.43902" stroke-linecap="round"/>
<path d="M37.334 283.819H24.834L49.834 308.819H62.6389L37.334 283.819Z" fill="#447A97" stroke="#447A97" stroke-width="2.43902" stroke-linecap="round"/>
<path d="M58.334 283.819H45.834L70.834 308.819H83.6389L58.334 283.819Z" fill="#447A97" stroke="#447A97" stroke-width="2.43902" stroke-linecap="round"/>
<path d="M79.334 283.819H66.834L91.834 308.819H104.639L79.334 283.819Z" fill="#447A97" stroke="#447A97" stroke-width="2.43902" stroke-linecap="round"/>
<path d="M100.334 283.819H87.834L112.834 308.819H125.639L100.334 283.819Z" fill="#447A97" stroke="#447A97" stroke-width="2.43902" stroke-linecap="round"/>
<path d="M121.334 283.819H108.834L133.834 308.819H146.639L121.334 283.819Z" fill="#447A97" stroke="#447A97" stroke-width="2.43902" stroke-linecap="round"/>
<path d="M142.334 283.819H129.834L154.834 308.819H167.639L142.334 283.819Z" fill="#447A97" stroke="#447A97" stroke-width="2.43902" stroke-linecap="round"/>
<path d="M163.334 283.819H150.834L175.834 308.819H188.639L163.334 283.819Z" fill="#447A97" stroke="#447A97" stroke-width="2.43902" stroke-linecap="round"/>
<path d="M184.334 283.819H171.834L196.834 308.819H209.639L184.334 283.819Z" fill="#447A97" stroke="#447A97" stroke-width="2.43902" stroke-linecap="round"/>
<path d="M205.334 283.819H192.834L217.834 308.819H230.639L205.334 283.819Z" fill="#447A97" stroke="#447A97" stroke-width="2.43902" stroke-linecap="round"/>
<path d="M226.334 283.819H213.834L238.834 308.819H251.639L226.334 283.819Z" fill="#447A97" stroke="#447A97" stroke-width="2.43902" stroke-linecap="round"/>
<path d="M247.334 283.819H234.834L259.834 308.819H272.639L247.334 283.819Z" fill="#447A97" stroke="#447A97" stroke-width="2.43902" stroke-linecap="round"/>
<path d="M268.334 283.819H255.834L280.834 308.819H293.639L268.334 283.819Z" fill="#447A97" stroke="#447A97" stroke-width="2.43902" stroke-linecap="round"/>
<path d="M289.334 283.819H276.834L301.834 308.819H314.639L289.334 283.819Z" fill="#447A97" stroke="#447A97" stroke-width="2.43902" stroke-linecap="round"/>
<path d="M310.334 283.819H297.834L322.834 308.819H335.639L310.334 283.819Z" fill="#447A97" stroke="#447A97" stroke-width="2.43902" stroke-linecap="round"/>
<path d="M326.834 283.819H318.834L343.834 308.819H356.639L333.334 286.819L326.834 283.819Z" fill="#447A97" stroke="#447A97" stroke-width="2.43902" stroke-linecap="round"/>
</svg>
