<svg width="461" height="214" viewBox="0 0 461 214" fill="none" xmlns="http://www.w3.org/2000/svg">
<path d="M455.861 206.106L441.118 209.92H410.65M455.861 206.106L449.964 203.881V201.656V199.749M455.861 206.106V198.16M449.964 199.749L455.861 198.16M449.964 199.749L436.204 203.881L428.341 203.245M455.861 198.16H459.793V182.903M426.375 1.7338H446.033V2.68732L447.999 3.95868L449.964 5.23005L453.896 6.18357L459.793 7.1371V18.8972M426.375 1.7338V3.95868M426.375 1.7338H404.752M426.375 3.95868H413.598L404.752 1.7338M426.375 3.95868V6.18357H430.307V10.3155H437.187L446.033 11.9047V16.0366L459.793 18.8972M404.752 1.7338L50.9193 0.86034M404.752 1.7338L78.4397 1.09811L76.4739 2.36948L68.611 4.27653L60.748 4.59437H54.8508L50.9193 3.00516M1.77584 9.67982H6.69019L10.6217 9.36198L15.536 7.77278L19.4675 5.86573L22.4161 4.27653V3.00516V2.05164V1.09811L50.9193 0.86034M50.9193 0.86034L18.4846 0.780273L0.792969 6.81925L1.06729 17.9437M50.9193 0.86034V3.00516M50.9193 3.00516L46.005 4.59437L39.1249 6.18357L34.2105 6.81925V9.04414L29.2962 10.6333H19.4675L16.5189 14.7653M16.5189 14.7653L1.06729 17.9437M16.5189 14.7653V20.4864L6.69019 23.5549M1.06729 17.9437L1.24757 25.254M1.24757 25.254L6.69019 23.5549M1.24757 25.254L1.43567 32.8822M6.69019 23.5549V30.3395L1.43567 32.8822M1.43567 32.8822L5.20569 185.764M459.793 18.8972V182.903M459.793 182.903L447.016 187.353V194.028L430.307 196.888L429.324 200.067M428.341 203.245L410.65 209.92M428.341 203.245L429.324 200.067M410.65 209.92H380.181M429.324 200.067L380.181 209.92M380.181 209.92H264.202L246.51 207.059L231.767 212.78L213.093 206.106L203.264 209.92H76.4739M5.20569 185.764L10.6217 187.353V193.074L28.3133 196.57V200.384L29.2962 200.702V203.245M5.20569 185.764L5.4565 195.935M29.2962 203.245L47.9707 209.92M29.2962 203.245L15.536 202.292M47.9707 209.92H18.4846L5.70732 206.106L5.69164 205.47M47.9707 209.92V204.516L76.4739 209.92M47.9707 209.92H76.4739M15.536 202.292L5.4565 195.935M15.536 202.292L5.69164 205.47M5.4565 195.935L5.69164 205.47" stroke="#63ABC6" stroke-width="1.56004"/>
</svg>
