<svg width="888" height="356" viewBox="0 0 888 356" fill="none" xmlns="http://www.w3.org/2000/svg">
<path d="M89.4236 52.8642L114.718 58.3231M114.718 58.3231L139.207 41.8284H167.693L180.687 0.821278L681.964 3.16098M114.718 58.3231L110.907 49.8969M114.718 58.3231L110.907 57.6303V49.8969M876.732 8.61986L838.79 3.16098H760.377M876.732 8.61986L861.555 11.8043V14.9886V17.7181M876.732 8.61986V19.9926M861.555 17.7181L876.732 19.9926M861.555 17.7181L826.143 11.8043L805.907 12.7141M876.732 19.9926H886.85V41.8284M800.848 353.515H851.437V352.15L856.496 350.33L861.555 348.511L871.673 347.146L886.85 345.781V328.95M800.848 353.515V350.33M800.848 353.515H745.2M800.848 350.33H767.965L745.2 353.515M800.848 350.33V347.146H810.966V341.232H828.672L851.437 338.958V333.044L886.85 328.95M745.2 353.515L109.772 354.821M3.37906 341.904H16.0263L26.1442 342.359L38.7914 344.633L48.9093 347.363L56.4976 349.637V351.457V352.822V354.186L129.852 354.527M129.852 354.527L46.3798 354.641L0.849609 345.998L1.5556 330.076M129.852 354.527V351.457M129.852 354.527L109.772 354.821M129.852 351.457L117.205 349.182L99.4984 346.908L86.8511 345.998V342.814L74.2038 340.539H48.9093L41.3209 334.625M129.852 351.457L139.97 349.182H155.146L175.382 349.637L195.618 352.367L200.677 354.186L109.772 354.821M41.3209 334.625L1.5556 330.076M41.3209 334.625V326.437L16.0263 322.045M1.5556 330.076L2.01953 319.613M2.01953 319.613L16.0263 322.045M2.01953 319.613L2.50364 308.695M16.0263 322.045V312.335L2.50364 308.695M2.50364 308.695L0.849609 84.4701M886.85 328.95V41.8284M886.85 41.8284L853.967 35.4596V25.9065L810.966 21.8123L808.437 17.2632M805.907 12.7141L760.377 3.16098M805.907 12.7141L808.437 17.2632M760.377 3.16098H681.964M808.437 17.2632L681.964 3.16098M0.849609 84.4701L14.7878 82.1955V74.0071L60.318 69.0031V63.5442L62.8475 63.0892V59.45M0.849609 84.4701L1.49508 69.9129M62.8475 59.45L110.907 49.8969M62.8475 59.45L27.4351 60.8147M110.907 49.8969H35.0235L2.14056 55.3558L2.10022 56.2656M27.4351 60.8147L1.49508 69.9129M27.4351 60.8147L2.10022 56.2656M1.49508 69.9129L2.10022 56.2656" stroke="#63ABC6" stroke-width="1.63721"/>
</svg>
