<svg width="665" height="338" viewBox="0 0 665 338" fill="none" xmlns="http://www.w3.org/2000/svg">
<path d="M658.225 331.287L637.2 336.819H593.748M658.225 331.287L649.815 328.06V324.834V322.068M658.225 331.287V319.763M649.815 322.068L658.225 319.763M649.815 322.068L630.192 328.06L618.978 327.139M658.225 319.763H663.832V297.637M616.175 2.66272H644.208V4.04563L647.012 5.88951L649.815 7.73338L655.422 9.11629L663.832 10.4992V27.555M616.175 2.66272V5.88951M616.175 2.66272H585.337M616.175 5.88951H597.953L585.337 2.66272M616.175 5.88951V9.11629H621.781V15.1089H631.593L644.208 17.4137V23.4063L663.832 27.555M585.337 2.66272L233.215 1.33889M2.23372 13.726H9.24218L14.8489 13.265L21.8574 10.9602L27.4642 8.19435L31.6692 5.88951V4.04563V2.66272V1.27982L72.3183 0.93497M72.3183 0.93497L26.0625 0.818848L0.832031 9.57726L1.22325 25.7112M72.3183 0.93497V4.04563M72.3183 0.93497L233.215 1.33889M72.3183 4.04563L65.3098 6.35047L55.498 8.65532L48.4895 9.57726V12.804L41.4811 15.1089H27.4642L23.2591 21.1015M72.3183 4.04563L77.9251 6.35047H86.3352L97.5487 5.88951L108.762 3.12369L111.566 1.27982L233.215 1.33889M23.2591 21.1015L1.22325 25.7112M23.2591 21.1015V29.3989L9.24218 33.8491M1.22325 25.7112L1.48034 36.3135M1.48034 36.3135L9.24218 33.8491M1.48034 36.3135L1.74861 47.3767M9.24218 33.8491V43.689L1.74861 47.3767M1.74861 47.3767L0.832031 269.103M663.832 27.555V297.637M663.832 297.637L645.61 304.09V313.77L621.781 317.919L620.38 322.529M618.978 327.139L593.748 336.819M618.978 327.139L620.38 322.529M593.748 336.819H550.295M620.38 322.529L550.295 336.819M550.295 336.819H375.959L337.543 308.285H330.23L303.597 298.605L289.58 304.136H102.469M0.832031 269.103L8.55586 271.408V279.705L33.7863 284.776V290.307L35.188 290.768V294.456M0.832031 269.103L1.18972 283.854M35.188 294.456L61.8201 304.136M35.188 294.456L15.5643 293.073M61.8201 304.136H19.7694L1.54741 298.605L1.52505 297.683M61.8201 304.136V296.3L102.469 304.136M61.8201 304.136H102.469M15.5643 293.073L1.18972 283.854M15.5643 293.073L1.52505 297.683M1.18972 283.854L1.52505 297.683" stroke="#63ABC6" stroke-width="1.63721"/>
</svg>
