<svg width="313" height="202" viewBox="0 0 313 202" fill="none" xmlns="http://www.w3.org/2000/svg">
<path d="M5.20312 201.826V20.3262V16.3262V12.8262H2.70312L6.20312 9.82617L2.70312 2.82617L10.7031 6.82617L16.2031 2.82617L19.7031 5.32617H289.203L295.703 1.32617L301.703 7.82617L310.203 1.32617L312.203 3.32617" stroke="#63ABC6" stroke-width="2"/>
<path d="M5.20312 27.8262H36.7031M48.7031 27.8262H36.7031M36.7031 27.8262V12.3262L246.703 10.8262L249.703 13.8262L254.703 12.3262H260.703V10.8262L288.703 12.3262L297.203 21.3262L302.703 13.8262L309.703 19.8262L311.203 18.3262" stroke="#63ABC6" stroke-width="2"/>
<path d="M25.7031 6.32617V20.3262M25.7031 20.3262L17.7031 27.3262M25.7031 20.3262L33.2031 27.3262H25.7031H21.7031L25.7031 42.8262L14.7031 36.8262V55.3262L10.7031 58.3262L11.6709 103.326M10.7031 139.826V125.826M10.7031 125.826V106.826L11.7031 104.826L11.6709 103.326M10.7031 125.826L16.2031 122.826V108.826M16.2031 108.826L11.6709 103.326M16.2031 108.826L22.2031 102.326L20.7031 99.8262L19.2031 97.8262V94.8262L20.7031 91.8262L25.7031 92.8262L22.2031 84.3262L30.2031 78.3262L24.7031 70.8262M24.7031 70.8262L12.7031 84.3262M24.7031 70.8262L17.2031 63.3262L26.7031 53.3262V43.3262M24.7031 70.8262L25.7031 68.3262L25.7631 66.8262M26.7031 43.3262L25.7631 66.8262M26.7031 43.3262L39.7031 49.3262M25.7631 66.8262L30.2031 66.3262L39.2031 57.8262L39.7031 49.3262M39.7031 49.3262L35.7031 27.8262H48.2031M39.7031 49.3262L49.7031 47.3262L56.2031 42.3262M48.2031 27.8262L50.1342 31.3262M48.2031 27.8262L49.4531 20.5762M56.2031 42.3262L50.1342 31.3262M56.2031 42.3262L60.2031 39.8262L66.7031 22.8262M50.1342 31.3262L45.9985 38.3262M50.1342 31.3262L53.2031 29.8262L66.7031 22.8262M45.7031 38.8262L41.7031 38.3262M45.7031 38.8262V41.8262L45.9985 38.3262M45.7031 38.8262L45.9985 38.3262M66.7031 22.8262L67.4174 21.8262M74.2031 12.3262L70.4531 17.5762M70.4531 17.5762L59.2031 18.3262M70.4531 17.5762L67.4174 21.8262M59.2031 18.3262L58.7031 12.3262M59.2031 18.3262L50.7031 20.3262L49.4531 20.5762M48.2031 20.8262L53.2031 14.8262V12.3262M48.2031 20.8262L37.2031 22.8262L49.4531 20.5762M48.2031 20.8262L49.4531 20.5762M67.4174 21.8262L72.2031 24.8262M72.2031 24.8262L79.2031 25.3262M72.2031 24.8262V30.3262M72.2031 24.8262L79.7031 25.3262L82.7031 25.8262L81.7031 21.8262L85.7031 20.8262L89.7031 25.3262M89.7031 25.3262L91.7031 27.8262M89.7031 25.3262L97.7031 17.3262M97.7031 17.3262L102.703 20.8262L111.703 16.3262L102.703 21.3262L97.7031 17.3262ZM97.7031 17.3262L97.2031 13.8262" stroke="#63ABC6" stroke-width="2"/>
<path d="M6.20312 9.32617L2.70312 2.82617L10.7031 6.82617L16.7031 2.82617L21.2031 5.82617L18.7031 8.82617L17.7031 12.8262L20.2031 17.8262L13.2031 14.8262V18.8262L8.70312 17.8262L5.20312 21.8262V12.8262H3.20312L6.20312 9.32617Z" fill="#63ABC6" stroke="#63ABC6" stroke-width="2"/>
</svg>
