<svg width="313" height="202" viewBox="0 0 313 202" fill="none" xmlns="http://www.w3.org/2000/svg">
<path d="M307.707 201.826V20.3262V16.3262V12.8262H310.207L306.707 9.82617L310.207 2.82617L302.207 6.82617L296.707 2.82617L293.207 5.32617H23.707L17.207 1.32617L11.207 7.82617L2.70703 1.32617L0.707031 3.32617" stroke="#63ABC6" stroke-width="2"/>
<path d="M307.707 27.8262H276.207M264.207 27.8262H276.207M276.207 27.8262V12.3262L66.207 10.8262L63.207 13.8262L58.207 12.3262H52.207V10.8262L24.207 12.3262L15.707 21.3262L10.207 13.8262L3.20703 19.8262L1.70703 18.3262" stroke="#63ABC6" stroke-width="2"/>
<path d="M287.207 6.32617V20.3262M287.207 20.3262L295.207 27.3262M287.207 20.3262L279.707 27.3262H287.207H291.207L287.207 42.8262L298.207 36.8262V55.3262L302.207 58.3262L301.239 103.326M302.207 139.826V125.826M302.207 125.826V106.826L301.207 104.826L301.239 103.326M302.207 125.826L296.707 122.826V108.826M296.707 108.826L301.239 103.326M296.707 108.826L290.707 102.326L292.207 99.8262L293.707 97.8262V94.8262L292.207 91.8262L287.207 92.8262L290.707 84.3262L282.707 78.3262L288.207 70.8262M288.207 70.8262L300.207 84.3262M288.207 70.8262L295.707 63.3262L286.207 53.3262V43.3262M288.207 70.8262L287.207 68.3262L287.147 66.8262M286.207 43.3262L287.147 66.8262M286.207 43.3262L273.207 49.3262M287.147 66.8262L282.707 66.3262L273.707 57.8262L273.207 49.3262M273.207 49.3262L277.207 27.8262H264.707M273.207 49.3262L263.207 47.3262L256.707 42.3262M264.707 27.8262L262.776 31.3262M264.707 27.8262L263.457 20.5762M256.707 42.3262L262.776 31.3262M256.707 42.3262L252.707 39.8262L246.207 22.8262M262.776 31.3262L266.912 38.3262M262.776 31.3262L259.707 29.8262L246.207 22.8262M267.207 38.8262L271.207 38.3262M267.207 38.8262V41.8262L266.912 38.3262M267.207 38.8262L266.912 38.3262M246.207 22.8262L245.493 21.8262M238.707 12.3262L242.457 17.5762M242.457 17.5762L253.707 18.3262M242.457 17.5762L245.493 21.8262M253.707 18.3262L254.207 12.3262M253.707 18.3262L262.207 20.3262L263.457 20.5762M264.707 20.8262L259.707 14.8262V12.3262M264.707 20.8262L275.707 22.8262L263.457 20.5762M264.707 20.8262L263.457 20.5762M245.493 21.8262L240.707 24.8262M240.707 24.8262L233.707 25.3262M240.707 24.8262V30.3262M240.707 24.8262L233.207 25.3262L230.207 25.8262L231.207 21.8262L227.207 20.8262L223.207 25.3262M223.207 25.3262L221.207 27.8262M223.207 25.3262L215.207 17.3262M215.207 17.3262L210.207 20.8262L201.207 16.3262L210.207 21.3262L215.207 17.3262ZM215.207 17.3262L215.707 13.8262" stroke="#63ABC6" stroke-width="2"/>
<path d="M306.707 9.32617L310.207 2.82617L302.207 6.82617L296.207 2.82617L291.707 5.82617L294.207 8.82617L295.207 12.8262L292.707 17.8262L299.707 14.8262V18.8262L304.207 17.8262L307.707 21.8262V12.8262H309.707L306.707 9.32617Z" fill="#63ABC6" stroke="#63ABC6" stroke-width="2"/>
</svg>
